<?xml version="1.0" encoding="UTF-8"?><svg id="a" xmlns="http://www.w3.org/2000/svg" viewBox="0 0 16.48 17"><defs><style>.f{fill:none;stroke:#fff;stroke-miterlimit:10;stroke-width:2px;}</style></defs><g id="b" transform="translate(0.623 255.148)"><g id="c" transform="translate(0.238 0.203)"><path id="d" class="f" d="M15.15,10.94s.09,.09,.14,.13c-.3,.81-.73,1.57-1.29,2.24-1.8-.47-3.64,.6-4.12,2.39-.01,.04-.02,.09-.03,.13-1.09,.24-2.21,.23-3.3-.02-.01-.05-.02-.1-.04-.15-.48-1.78-2.29-2.84-4.07-2.4-.54-.66-.97-1.42-1.26-2.22,.06-.05,.12-.11,.18-.17,1.32-1.32,1.32-3.45,0-4.77h0c-.06-.06-.11-.11-.17-.16,.29-.8,.72-1.55,1.27-2.21,1.8,.47,3.64-.6,4.12-2.39,.01-.05,.03-.1,.04-.15,1.08-.24,2.21-.24,3.29,0,.01,.06,.03,.12,.04,.18,.48,1.79,2.31,2.86,4.1,2.39,.55,.67,.98,1.43,1.27,2.25-.06,.05-.11,.1-.16,.15-1.32,1.32-1.32,3.45,0,4.77h0Z"/><circle id="e" class="f" cx="8.24" cy="8.5" r="2"/></g></g></svg>